
<svg xmlns="http://www.w3.org/2000/svg" xmlns:xlink="http://www.w3.org/1999/xlink" version="1.1"  width="1293" height="747">
<defs id="dmw_defs" >
<svg id="fk_sym" viewBox="0 0 48.665 48.665" style="enable-background:new 0 0 48.665 48.665;" >
<g>
<path d="M40.332,31.592c-2.377,0-4.515,1-6.033,2.598l-17.737-8.686c0.061-0.406,0.103-0.82,0.103-1.246    c0-0.414-0.04-0.818-0.098-1.215l17.711-8.589c1.519,1.609,3.666,2.619,6.054,2.619c4.603,0,8.333-3.731,8.333-8.333    c0-4.603-3.73-8.333-8.333-8.333s-8.333,3.73-8.333,8.333c0,0.414,0.04,0.817,0.098,1.215l-17.709,8.589    c-1.519-1.609-3.666-2.619-6.054-2.619C3.73,15.925,0,19.656,0,24.258c0,4.603,3.73,8.333,8.333,8.333    c2.377,0,4.515-1,6.033-2.596l17.736,8.685c-0.062,0.406-0.104,0.82-0.104,1.245c0,4.604,3.73,8.333,8.333,8.333    s8.333-3.729,8.333-8.333C48.665,35.322,44.935,31.592,40.332,31.592z" fill="#13bf3b"/>
</g>
</svg>
<svg id="pk_sym" viewBox="0 0 480.509 480.509" style="enable-background:new 0 0 480.509 480.509;" >
<g>
<path d="M418.119,331.046c4.094,4.374,7.766,8.186,10.996,11.416c3.237,3.238,6.714,6.376,10.427,9.422   c3.71,3.042,6.427,4.568,8.135,4.568c3.241,0,9.517-4.661,18.843-13.99c9.328-9.321,13.989-15.604,13.989-18.842   c0-1.523-2.714-5.421-8.138-11.704c-5.421-6.276-12.364-13.702-20.838-22.271c-8.473-8.565-16.703-16.744-24.694-24.55   c-8.001-7.81-15.8-15.373-23.417-22.703c-7.611-7.327-11.992-11.56-13.135-12.703c-1.902-1.902-4.093-2.853-6.563-2.853   c-3.237,0-9.521,4.661-18.843,13.988c-9.328,9.322-13.989,15.605-13.989,18.843c0,1.711,1.522,4.421,4.568,8.138   c3.046,3.71,6.188,7.187,9.421,10.424c3.23,3.23,7.047,6.899,11.42,10.992c4.377,4.093,6.848,6.423,7.423,6.995l-27.408,27.404   L254.954,222.268c24.94-33.498,37.408-68.236,37.408-104.211c0-31.024-9.761-56.293-29.263-75.801   c-19.512-19.511-44.778-29.265-75.805-29.265c-30.454,0-60.244,9.042-89.363,27.119c-29.121,18.083-52.727,41.686-70.808,70.808   C9.042,140.038,0,169.828,0,200.28c0,31.029,9.753,56.286,29.265,75.803c19.511,19.517,44.777,29.27,75.801,29.27   c35.976,0,70.71-12.467,104.212-37.407l191.574,191.579c5.332,5.328,11.796,7.994,19.417,7.994c7.991,0,15.704-3.72,23.12-11.14   c7.426-7.426,11.143-15.129,11.143-23.127c0-7.617-2.666-14.092-7.994-19.417l-62.811-62.811l27.405-27.404   C411.699,324.195,414.033,326.666,418.119,331.046z M221.556,161.458c-10.656,10.657-23.601,15.987-38.828,15.987   c-7.996,0-15.896-1.812-23.7-5.43c3.617,7.808,5.426,15.706,5.426,23.7c0,15.229-5.327,28.171-15.987,38.828   c-10.66,10.655-23.606,15.986-38.831,15.986c-15.227,0-28.168-5.325-38.828-15.986c-10.657-10.657-15.987-23.599-15.987-38.828   c0-15.227,5.327-28.171,15.987-38.828C81.464,146.23,94.409,140.9,109.636,140.9c7.992,0,15.893,1.809,23.695,5.424   c-3.616-7.804-5.424-15.706-5.424-23.699c0-15.227,5.327-28.171,15.987-38.828c10.66-10.657,23.604-15.987,38.831-15.987   c15.227,0,28.171,5.327,38.828,15.987c10.657,10.66,15.987,23.601,15.987,38.828C237.539,137.852,232.209,150.797,221.556,161.458z   " fill="#ff8345"/>
</g>
</svg>
<svg id="uk_sym" viewBox="0 0 490 490" style="enable-background:new 0 0 490 490;" >
<g>
	<polygon points="236.99,11.41 0,246.348 236.99,478.678 236.99,350.609 129.864,245 236.99,139.391  " fill="#0064fb"/>
<polygon points="253.01,478.59 490,243.651 253.01,11.322 253.01,139.391 360.136,245 253.01,350.609  " fill="#0064fb"/>
</g>
</svg>
<svg id="link_sym" viewBox="0 0 1000 900" style="enable-background:new 0 0 1000 900;" >
<g>
<path fill="black" d="M660.224 422.656c6.976 16.192-0.512 35.008-16.768 42.048-16.128 6.976-34.944-0.448-41.984-16.768-8.448-19.776-20.736-37.696-36.224-53.248-64.64-64.64-177.344-64.64-241.92 0l-145.216 145.28c-66.688 66.688-66.688 175.232 0 241.984 66.688 66.688 175.104 66.752 241.92 0l92.8-92.864c12.48-12.48 32.768-12.48 45.248 0s12.48 32.768 0 45.248l-92.8 92.864c-91.648 91.648-240.832 91.52-332.416 0-91.712-91.648-91.712-240.832 0-332.48l145.216-145.28c44.352-44.416 103.424-68.864 166.272-68.864s121.792 24.448 166.208 68.864c21.248 21.312 38.016 45.952 49.664 73.216zM891.136 401.344l-145.216 145.216c-88.768 88.832-243.712 88.832-332.416 0-21.312-21.312-38.080-45.952-49.728-73.216-7.040-16.256 0.448-35.072 16.704-42.048 16.064-6.784 35.008 0.512 41.984 16.768 8.512 19.776 20.8 37.696 36.288 53.248 64.64 64.64 177.344 64.64 241.92 0l145.216-145.216c66.688-66.688 66.688-175.232 0-241.984-66.752-66.624-175.168-66.688-241.92 0l-92.8 92.864c-12.48 12.48-32.768 12.48-45.248 0s-12.48-32.768 0-45.248l92.8-92.864c45.824-45.824 105.984-68.736 166.208-68.736s120.448 22.912 166.272 68.736c91.584 91.648 91.584 240.768-0.064 332.48z" />
</g>
</svg>
<clipPath clipPathUnits="userSpaceOnUse" id="clipPath7_0_">
<rect x="0" y="0" width="170" height="92" />
</clipPath>
<clipPath clipPathUnits="userSpaceOnUse" id="clipPath3_0_">
<rect x="0" y="0" width="228" height="242" />
</clipPath>
<clipPath clipPathUnits="userSpaceOnUse" id="clipPath6_0_">
<rect x="0" y="0" width="235" height="360" />
</clipPath>
<clipPath clipPathUnits="userSpaceOnUse" id="clipPath5_0_">
<rect x="0" y="0" width="233" height="101" />
</clipPath>
<clipPath clipPathUnits="userSpaceOnUse" id="clipPath8_0_">
<rect x="0" y="0" width="246" height="245" />
</clipPath>
<clipPath clipPathUnits="userSpaceOnUse" id="clipPath2_0_">
<rect x="0" y="0" width="215" height="110" />
</clipPath>
<clipPath clipPathUnits="userSpaceOnUse" id="clipPath4_0_">
<rect x="0" y="0" width="232" height="246" />
</clipPath>
<clipPath clipPathUnits="userSpaceOnUse" id="clipPath1_0_">
<rect x="0" y="0" width="258" height="315" />
</clipPath>
</defs>
<g stroke-linecap="butt" >
<path stroke="rgb(0,0,0)" fill="none" stroke-opacity="1.0"  stroke-width="1" d="M1035 232 L854 232" />
<polygon stroke="rgb(0,0,0)" stroke-dasharray="none" points="1035 232 1029 235 1029 229" fill="rgb(0,0,0)" stroke-width="1" stroke-opacity="1.0"  />
<path stroke-dasharray="none" d="M860.0 226.0 L860.0 238.0 M865.3999996185303 226.0 L865.3999996185303 238.0" fill="white" stroke-width="1" stroke-opacity="1.0" stroke="rgb(0,0,0)" />
</g>
<g stroke-linecap="butt" >
<path stroke="rgb(0,0,0)" fill="none" stroke-opacity="1.0"  stroke-width="1" d="M855 543 L678 543" />
<polygon stroke="rgb(0,0,0)" stroke-dasharray="none" points="855 543 849 546 849 540" fill="rgb(0,0,0)" stroke-width="1" stroke-opacity="1.0"  />
<path stroke-dasharray="none" d="M684.0 537.0 L684.0 549.0 M689.3999996185303 537.0 L689.3999996185303 549.0" fill="white" stroke-width="1" stroke-opacity="1.0" stroke="rgb(0,0,0)" />
</g>
<g stroke-linecap="butt" >
<path stroke="rgb(0,0,0)" fill="none" stroke-opacity="1.0"  stroke-width="1" d="M534 219 L619 219" />
<polygon stroke="rgb(0,0,0)" stroke-dasharray="none" points="534 219 540 216 540 222" fill="rgb(0,0,0)" stroke-width="1" stroke-opacity="1.0"  />
<path stroke-dasharray="none" d="M613.0 225.0 L613.0 213.0 M607.6000003814697 225.0 L607.6000003814697 213.0" fill="white" stroke-width="1" stroke-opacity="1.0" stroke="rgb(0,0,0)" />
</g>
<g stroke-linecap="butt" >
<path stroke="rgb(0,0,0)" fill="none" stroke-opacity="1.0"  stroke-width="1" d="M352 50 L281 50" />
<polygon stroke="rgb(0,0,0)" stroke-dasharray="none" points="352 50 346 53 346 47" fill="rgb(0,0,0)" stroke-width="1" stroke-opacity="1.0"  />
<path stroke-dasharray="none" d="M287.0 44.0 L287.0 56.0 M292.3999996185303 44.0 L292.3999996185303 56.0" fill="white" stroke-width="1" stroke-opacity="1.0" stroke="rgb(0,0,0)" />
</g>
<g stroke-linecap="butt" >
<path stroke="rgb(0,0,0)" fill="none" stroke-opacity="1.0"  stroke-width="1" d="M648 397 L648 502" />
<polygon stroke="rgb(0,0,0)" stroke-dasharray="none" points="648 397 651 403 645 403" fill="rgb(0,0,0)" stroke-width="1" stroke-opacity="1.0"  />
<path stroke-dasharray="none" d="M642.0 496.0 L654.0 496.0 M642.0 490.6000003814697 L654.0 490.6000003814697" fill="white" stroke-width="1" stroke-opacity="1.0" stroke="rgb(0,0,0)" />
</g>
<g stroke-linecap="butt" >
<path stroke="rgb(0,0,0)" fill="none" stroke-opacity="1.0"  stroke-width="1" d="M160 242 L160 355" />
<polygon stroke="rgb(0,0,0)" stroke-dasharray="none" points="160 242 163 248 157 248" fill="rgb(0,0,0)" stroke-width="1" stroke-opacity="1.0"  />
<path stroke-dasharray="none" d="M154.0 349.0 L166.0 349.0 M154.0 343.6000003814697 L166.0 343.6000003814697" fill="white" stroke-width="1" stroke-opacity="1.0" stroke="rgb(0,0,0)" />
</g>
<g stroke-linecap="butt" >
<path stroke="rgb(0,0,0)" fill="none" stroke-opacity="1.0"  stroke-width="1" d="M619 376 L267 376" />
<polygon stroke="rgb(0,0,0)" stroke-dasharray="none" points="619 376 613 379 613 373" fill="rgb(0,0,0)" stroke-width="1" stroke-opacity="1.0"  />
<path stroke-dasharray="none" d="M273.0 370.0 L273.0 382.0 M278.3999996185303 370.0 L278.3999996185303 382.0" fill="white" stroke-width="1" stroke-opacity="1.0" stroke="rgb(0,0,0)" />
</g>
<g  fill="rgb(255,255,180)" stroke="rgb(0,0,255)" fill-opacity="1.0" stroke-opacity="1.0" clip-path="url(#clipPath1_0_)" transform="translate(1035,75)" >
<rect x="0" y="0" width="257" height="314" />
<text id="E57CEE8E-8A989E2EDBDD" x="88" y="13" fill="rgb(0,0,255)" font-weight="bold"  fill-opacity="1.0" font-size="10" stroke="none">
country_codes
</text>
<line x1="0" y1="17" x2="256" y2="17" fill="none" stroke="rgb(0,0,255)"/>
<text x="16" y="30" fill="rgb(255,0,0)" fill-opacity="1.0" font-size="10" stroke="none">
*
</text>
<text x="2" y="30" fill="rgb(0,0,255)" fill-opacity="1.0" font-size="10" stroke="none">
P
</text>
<text x="27" y="30" fill="rgb(0,0,0)" fill-opacity="1.0" font-size="10" stroke="none">
id
</text>
<text x="144" y="30" fill="rgb(0,128,0)" fill-opacity="1.0" font-size="10" stroke="none">
INTEGER
</text>
<text x="16" y="43" fill="rgb(255,0,0)" fill-opacity="1.0" font-size="10" stroke="none">

</text>
<text x="27" y="43" fill="rgb(0,0,0)" fill-opacity="1.0" font-size="10" stroke="none">
name
</text>
<text x="144" y="43" fill="rgb(0,128,0)" fill-opacity="1.0" font-size="10" stroke="none">
VARCHAR2
</text>
<text x="16" y="56" fill="rgb(255,0,0)" fill-opacity="1.0" font-size="10" stroke="none">

</text>
<text x="27" y="56" fill="rgb(0,0,0)" fill-opacity="1.0" font-size="10" stroke="none">
iso2
</text>
<text x="144" y="56" fill="rgb(0,128,0)" fill-opacity="1.0" font-size="10" stroke="none">
VARCHAR2
</text>
<text x="16" y="69" fill="rgb(255,0,0)" fill-opacity="1.0" font-size="10" stroke="none">

</text>
<text x="27" y="69" fill="rgb(0,0,0)" fill-opacity="1.0" font-size="10" stroke="none">
name_name
</text>
<text x="144" y="69" fill="rgb(0,128,0)" fill-opacity="1.0" font-size="10" stroke="none">
VARCHAR2
</text>
<text x="16" y="82" fill="rgb(255,0,0)" fill-opacity="1.0" font-size="10" stroke="none">

</text>
<text x="27" y="82" fill="rgb(0,0,0)" fill-opacity="1.0" font-size="10" stroke="none">
name_aiddata_code
</text>
<text x="144" y="82" fill="rgb(0,128,0)" fill-opacity="1.0" font-size="10" stroke="none">
INTEGER
</text>
<text x="16" y="95" fill="rgb(255,0,0)" fill-opacity="1.0" font-size="10" stroke="none">

</text>
<text x="27" y="95" fill="rgb(0,0,0)" fill-opacity="1.0" font-size="10" stroke="none">
name_aiddata_name
</text>
<text x="144" y="95" fill="rgb(0,128,0)" fill-opacity="1.0" font-size="10" stroke="none">
VARCHAR2
</text>
<text x="16" y="108" fill="rgb(255,0,0)" fill-opacity="1.0" font-size="10" stroke="none">

</text>
<text x="27" y="108" fill="rgb(0,0,0)" fill-opacity="1.0" font-size="10" stroke="none">
name_cow_alpha
</text>
<text x="144" y="108" fill="rgb(0,128,0)" fill-opacity="1.0" font-size="10" stroke="none">
VARCHAR2
</text>
<text x="16" y="121" fill="rgb(255,0,0)" fill-opacity="1.0" font-size="10" stroke="none">

</text>
<text x="27" y="121" fill="rgb(0,0,0)" fill-opacity="1.0" font-size="10" stroke="none">
name_cow_numeric
</text>
<text x="144" y="121" fill="rgb(0,128,0)" fill-opacity="1.0" font-size="10" stroke="none">
INTEGER
</text>
<text x="16" y="134" fill="rgb(255,0,0)" fill-opacity="1.0" font-size="10" stroke="none">

</text>
<text x="27" y="134" fill="rgb(0,0,0)" fill-opacity="1.0" font-size="10" stroke="none">
name_fao_code
</text>
<text x="144" y="134" fill="rgb(0,128,0)" fill-opacity="1.0" font-size="10" stroke="none">
INTEGER
</text>
<text x="16" y="147" fill="rgb(255,0,0)" fill-opacity="1.0" font-size="10" stroke="none">

</text>
<text x="27" y="147" fill="rgb(0,0,0)" fill-opacity="1.0" font-size="10" stroke="none">
name_fips
</text>
<text x="144" y="147" fill="rgb(0,128,0)" fill-opacity="1.0" font-size="10" stroke="none">
VARCHAR2
</text>
<text x="16" y="160" fill="rgb(255,0,0)" fill-opacity="1.0" font-size="10" stroke="none">

</text>
<text x="27" y="160" fill="rgb(0,0,0)" fill-opacity="1.0" font-size="10" stroke="none">
name_geonames_id
</text>
<text x="144" y="160" fill="rgb(0,128,0)" fill-opacity="1.0" font-size="10" stroke="none">
INTEGER
</text>
<text x="16" y="173" fill="rgb(255,0,0)" fill-opacity="1.0" font-size="10" stroke="none">

</text>
<text x="27" y="173" fill="rgb(0,0,0)" fill-opacity="1.0" font-size="10" stroke="none">
name_imf_code
</text>
<text x="144" y="173" fill="rgb(0,128,0)" fill-opacity="1.0" font-size="10" stroke="none">
INTEGER
</text>
<text x="16" y="186" fill="rgb(255,0,0)" fill-opacity="1.0" font-size="10" stroke="none">

</text>
<text x="27" y="186" fill="rgb(0,0,0)" fill-opacity="1.0" font-size="10" stroke="none">
name_iso2
</text>
<text x="144" y="186" fill="rgb(0,128,0)" fill-opacity="1.0" font-size="10" stroke="none">
VARCHAR2
</text>
<text x="16" y="199" fill="rgb(255,0,0)" fill-opacity="1.0" font-size="10" stroke="none">

</text>
<text x="27" y="199" fill="rgb(0,0,0)" fill-opacity="1.0" font-size="10" stroke="none">
name_iso3
</text>
<text x="144" y="199" fill="rgb(0,128,0)" fill-opacity="1.0" font-size="10" stroke="none">
VARCHAR2
</text>
<text x="16" y="212" fill="rgb(255,0,0)" fill-opacity="1.0" font-size="10" stroke="none">

</text>
<text x="27" y="212" fill="rgb(0,0,0)" fill-opacity="1.0" font-size="10" stroke="none">
name_iso_numeric
</text>
<text x="144" y="212" fill="rgb(0,128,0)" fill-opacity="1.0" font-size="10" stroke="none">
INTEGER
</text>
<text x="16" y="225" fill="rgb(255,0,0)" fill-opacity="1.0" font-size="10" stroke="none">

</text>
<text x="27" y="225" fill="rgb(0,0,0)" fill-opacity="1.0" font-size="10" stroke="none">
name_oecd_code
</text>
<text x="144" y="225" fill="rgb(0,128,0)" fill-opacity="1.0" font-size="10" stroke="none">
INTEGER
</text>
<text x="16" y="238" fill="rgb(255,0,0)" fill-opacity="1.0" font-size="10" stroke="none">

</text>
<text x="27" y="238" fill="rgb(0,0,0)" fill-opacity="1.0" font-size="10" stroke="none">
name_oecd_name
</text>
<text x="144" y="238" fill="rgb(0,128,0)" fill-opacity="1.0" font-size="10" stroke="none">
VARCHAR2
</text>
<text x="16" y="251" fill="rgb(255,0,0)" fill-opacity="1.0" font-size="10" stroke="none">

</text>
<text x="27" y="251" fill="rgb(0,0,0)" fill-opacity="1.0" font-size="10" stroke="none">
name_un_code
</text>
<text x="144" y="251" fill="rgb(0,128,0)" fill-opacity="1.0" font-size="10" stroke="none">
INTEGER
</text>
<text x="16" y="264" fill="rgb(255,0,0)" fill-opacity="1.0" font-size="10" stroke="none">

</text>
<text x="27" y="264" fill="rgb(0,0,0)" fill-opacity="1.0" font-size="10" stroke="none">
name_wb_code
</text>
<text x="144" y="264" fill="rgb(0,128,0)" fill-opacity="1.0" font-size="10" stroke="none">
VARCHAR2
</text>
<line x1="0" y1="270" x2="256" y2="270" fill="none" stroke="rgb(0,0,255)"/>
<use xlink:href="#pk_sym" x="4" y="277" width="8" height="8" fill-opacity="1.0"/>
<text x="16" y="283" fill="rgb(0,0,0)" fill-opacity="1.0" font-size="10" stroke="none">
country_codes_PK (id)
</text>
</g>
<g  fill="rgb(255,255,180)" stroke="rgb(0,0,255)" fill-opacity="1.0" stroke-opacity="1.0" clip-path="url(#clipPath2_0_)" transform="translate(855,474)" >
<rect x="0" y="0" width="214" height="109" />
<text id="BA5FC000-311279C187CC" x="82" y="13" fill="rgb(0,0,255)" font-weight="bold"  fill-opacity="1.0" font-size="10" stroke="none">
currency
</text>
<line x1="0" y1="17" x2="213" y2="17" fill="none" stroke="rgb(0,0,255)"/>
<text x="16" y="30" fill="rgb(255,0,0)" fill-opacity="1.0" font-size="10" stroke="none">
*
</text>
<text x="2" y="30" fill="rgb(0,0,255)" fill-opacity="1.0" font-size="10" stroke="none">
P
</text>
<text x="27" y="30" fill="rgb(0,0,0)" fill-opacity="1.0" font-size="10" stroke="none">
id
</text>
<text x="122" y="30" fill="rgb(0,128,0)" fill-opacity="1.0" font-size="10" stroke="none">
INTEGER
</text>
<text x="16" y="43" fill="rgb(255,0,0)" fill-opacity="1.0" font-size="10" stroke="none">

</text>
<text x="27" y="43" fill="rgb(0,0,0)" fill-opacity="1.0" font-size="10" stroke="none">
name_currency
</text>
<text x="122" y="43" fill="rgb(0,128,0)" fill-opacity="1.0" font-size="10" stroke="none">
VARCHAR2
</text>
<line x1="0" y1="49" x2="213" y2="49" fill="none" stroke="rgb(0,0,255)"/>
<use xlink:href="#pk_sym" x="4" y="56" width="8" height="8" fill-opacity="1.0"/>
<text x="16" y="62" fill="rgb(0,0,0)" fill-opacity="1.0" font-size="10" stroke="none">
currency_PK (id)
</text>
</g>
<g  fill="rgb(255,255,180)" stroke="rgb(0,0,255)" fill-opacity="1.0" stroke-opacity="1.0" clip-path="url(#clipPath3_0_)" transform="translate(53,0)" >
<rect x="0" y="0" width="227" height="241" />
<text id="5058305F-3D63CA219723" x="84" y="13" fill="rgb(0,0,255)" font-weight="bold"  fill-opacity="1.0" font-size="10" stroke="none">
geonames
</text>
<line x1="0" y1="17" x2="226" y2="17" fill="none" stroke="rgb(0,0,255)"/>
<text x="16" y="30" fill="rgb(255,0,0)" fill-opacity="1.0" font-size="10" stroke="none">
*
</text>
<text x="2" y="30" fill="rgb(0,0,255)" fill-opacity="1.0" font-size="10" stroke="none">
P
</text>
<text x="27" y="30" fill="rgb(0,0,0)" fill-opacity="1.0" font-size="10" stroke="none">
id
</text>
<text x="154" y="30" fill="rgb(0,128,0)" fill-opacity="1.0" font-size="10" stroke="none">
INTEGER
</text>
<text x="16" y="43" fill="rgb(255,0,0)" fill-opacity="1.0" font-size="10" stroke="none">

</text>
<text x="27" y="43" fill="rgb(0,0,0)" fill-opacity="1.0" font-size="10" stroke="none">
geoname_id
</text>
<text x="154" y="43" fill="rgb(0,128,0)" fill-opacity="1.0" font-size="10" stroke="none">
INTEGER
</text>
<text x="16" y="56" fill="rgb(255,0,0)" fill-opacity="1.0" font-size="10" stroke="none">

</text>
<text x="27" y="56" fill="rgb(0,0,0)" fill-opacity="1.0" font-size="10" stroke="none">
place_name
</text>
<text x="154" y="56" fill="rgb(0,128,0)" fill-opacity="1.0" font-size="10" stroke="none">
VARCHAR2
</text>
<text x="16" y="69" fill="rgb(255,0,0)" fill-opacity="1.0" font-size="10" stroke="none">

</text>
<text x="27" y="69" fill="rgb(0,0,0)" fill-opacity="1.0" font-size="10" stroke="none">
latitude
</text>
<text x="154" y="69" fill="rgb(0,128,0)" fill-opacity="1.0" font-size="10" stroke="none">
FLOAT
</text>
<text x="16" y="82" fill="rgb(255,0,0)" fill-opacity="1.0" font-size="10" stroke="none">

</text>
<text x="27" y="82" fill="rgb(0,0,0)" fill-opacity="1.0" font-size="10" stroke="none">
longitude
</text>
<text x="154" y="82" fill="rgb(0,128,0)" fill-opacity="1.0" font-size="10" stroke="none">
FLOAT
</text>
<text x="16" y="95" fill="rgb(255,0,0)" fill-opacity="1.0" font-size="10" stroke="none">

</text>
<text x="27" y="95" fill="rgb(0,0,0)" fill-opacity="1.0" font-size="10" stroke="none">
location_type_code
</text>
<text x="154" y="95" fill="rgb(0,128,0)" fill-opacity="1.0" font-size="10" stroke="none">
VARCHAR2
</text>
<text x="16" y="108" fill="rgb(255,0,0)" fill-opacity="1.0" font-size="10" stroke="none">

</text>
<text x="27" y="108" fill="rgb(0,0,0)" fill-opacity="1.0" font-size="10" stroke="none">
location_type_name
</text>
<text x="154" y="108" fill="rgb(0,128,0)" fill-opacity="1.0" font-size="10" stroke="none">
VARCHAR2
</text>
<text x="16" y="121" fill="rgb(255,0,0)" fill-opacity="1.0" font-size="10" stroke="none">

</text>
<text x="27" y="121" fill="rgb(0,0,0)" fill-opacity="1.0" font-size="10" stroke="none">
gazetteer_adm_code
</text>
<text x="154" y="121" fill="rgb(0,128,0)" fill-opacity="1.0" font-size="10" stroke="none">
VARCHAR2
</text>
<text x="16" y="134" fill="rgb(255,0,0)" fill-opacity="1.0" font-size="10" stroke="none">

</text>
<text x="27" y="134" fill="rgb(0,0,0)" fill-opacity="1.0" font-size="10" stroke="none">
gazetteer_adm_name
</text>
<text x="154" y="134" fill="rgb(0,128,0)" fill-opacity="1.0" font-size="10" stroke="none">
VARCHAR2
</text>
<text x="16" y="147" fill="rgb(255,0,0)" fill-opacity="1.0" font-size="10" stroke="none">

</text>
<text x="27" y="147" fill="rgb(0,0,0)" fill-opacity="1.0" font-size="10" stroke="none">
location_class
</text>
<text x="154" y="147" fill="rgb(0,128,0)" fill-opacity="1.0" font-size="10" stroke="none">
INTEGER
</text>
<text x="16" y="160" fill="rgb(255,0,0)" fill-opacity="1.0" font-size="10" stroke="none">

</text>
<text x="27" y="160" fill="rgb(0,0,0)" fill-opacity="1.0" font-size="10" stroke="none">
geographic_exactness
</text>
<text x="154" y="160" fill="rgb(0,128,0)" fill-opacity="1.0" font-size="10" stroke="none">
INTEGER
</text>
<text x="16" y="173" fill="rgb(255,0,0)" fill-opacity="1.0" font-size="10" stroke="none">
*
</text>
<text x="2" y="173" fill="rgb(0,0,0)" fill-opacity="1.0" font-size="10" stroke="none">
F
</text>
<text x="27" y="173" fill="rgb(0,0,0)" fill-opacity="1.0" font-size="10" stroke="none">
locations_id
</text>
<text x="154" y="173" fill="rgb(0,128,0)" fill-opacity="1.0" font-size="10" stroke="none">
INTEGER
</text>
<line x1="0" y1="179" x2="226" y2="179" fill="none" stroke="rgb(0,0,255)"/>
<use xlink:href="#pk_sym" x="4" y="186" width="8" height="8" fill-opacity="1.0"/>
<text x="16" y="192" fill="rgb(0,0,0)" fill-opacity="1.0" font-size="10" stroke="none">
geonames_PK (id)
</text>
<line x1="0" y1="198" x2="226" y2="198" fill="none" stroke="rgb(0,0,255)"/>
<use xlink:href="#fk_sym" x="4" y="205" width="8" height="8" fill-opacity="1.0"/><a xlink:href="#721FF7AF-4F4103908569" >
<text x="16" y="211" fill="rgb(0,0,0)" fill-opacity="1.0" font-size="10" stroke="none">
geonames_locations_FK (locations_id)
</text></a>
<line x1="0" y1="217" x2="226" y2="217" fill="none" stroke="rgb(0,0,255)"/>
<text x="2" y="230" fill="rgb(0,0,0)" fill-opacity="1.0" font-size="10" stroke="none">
U
</text>
<text x="16" y="230" fill="rgb(0,0,0)" fill-opacity="1.0" font-size="10" stroke="none">
geonames__IDX (locations_id)
</text>
</g>
<g  fill="rgb(255,255,180)" stroke="rgb(0,0,255)" fill-opacity="1.0" stroke-opacity="1.0" clip-path="url(#clipPath4_0_)" transform="translate(35,355)" >
<rect x="0" y="0" width="231" height="245" />
<text id="C00C7F1F-27F3C5AFE1D2" x="102" y="13" fill="rgb(0,0,255)" font-weight="bold"  fill-opacity="1.0" font-size="10" stroke="none">
level
</text>
<line x1="0" y1="17" x2="230" y2="17" fill="none" stroke="rgb(0,0,255)"/>
<text x="16" y="30" fill="rgb(255,0,0)" fill-opacity="1.0" font-size="10" stroke="none">
*
</text>
<text x="2" y="30" fill="rgb(0,0,255)" fill-opacity="1.0" font-size="10" stroke="none">
P
</text>
<text x="27" y="30" fill="rgb(0,0,0)" fill-opacity="1.0" font-size="10" stroke="none">
id
</text>
<text x="171" y="30" fill="rgb(0,128,0)" fill-opacity="1.0" font-size="10" stroke="none">
INTEGER
</text>
<text x="16" y="43" fill="rgb(255,0,0)" fill-opacity="1.0" font-size="10" stroke="none">

</text>
<text x="27" y="43" fill="rgb(0,0,0)" fill-opacity="1.0" font-size="10" stroke="none">
project_id
</text>
<text x="171" y="43" fill="rgb(0,128,0)" fill-opacity="1.0" font-size="10" stroke="none">
INTEGER
</text>
<text x="16" y="56" fill="rgb(255,0,0)" fill-opacity="1.0" font-size="10" stroke="none">

</text>
<text x="27" y="56" fill="rgb(0,0,0)" fill-opacity="1.0" font-size="10" stroke="none">
project_location_id
</text>
<text x="171" y="56" fill="rgb(0,128,0)" fill-opacity="1.0" font-size="10" stroke="none">
INTEGER
</text>
<text x="16" y="69" fill="rgb(255,0,0)" fill-opacity="1.0" font-size="10" stroke="none">

</text>
<text x="27" y="69" fill="rgb(0,0,0)" fill-opacity="1.0" font-size="10" stroke="none">
geoname_id
</text>
<text x="171" y="69" fill="rgb(0,128,0)" fill-opacity="1.0" font-size="10" stroke="none">
INTEGER
</text>
<text x="16" y="82" fill="rgb(255,0,0)" fill-opacity="1.0" font-size="10" stroke="none">

</text>
<text x="27" y="82" fill="rgb(0,0,0)" fill-opacity="1.0" font-size="10" stroke="none">
transactions_start_year
</text>
<text x="171" y="82" fill="rgb(0,128,0)" fill-opacity="1.0" font-size="10" stroke="none">
INTEGER
</text>
<text x="16" y="95" fill="rgb(255,0,0)" fill-opacity="1.0" font-size="10" stroke="none">

</text>
<text x="27" y="95" fill="rgb(0,0,0)" fill-opacity="1.0" font-size="10" stroke="none">
transactions_end_year
</text>
<text x="171" y="95" fill="rgb(0,128,0)" fill-opacity="1.0" font-size="10" stroke="none">
INTEGER
</text>
<text x="16" y="108" fill="rgb(255,0,0)" fill-opacity="1.0" font-size="10" stroke="none">

</text>
<text x="27" y="108" fill="rgb(0,0,0)" fill-opacity="1.0" font-size="10" stroke="none">
even_split_commitments
</text>
<text x="171" y="108" fill="rgb(0,128,0)" fill-opacity="1.0" font-size="10" stroke="none">
FLOAT
</text>
<text x="16" y="121" fill="rgb(255,0,0)" fill-opacity="1.0" font-size="10" stroke="none">

</text>
<text x="27" y="121" fill="rgb(0,0,0)" fill-opacity="1.0" font-size="10" stroke="none">
even_split_disbursements
</text>
<text x="171" y="121" fill="rgb(0,128,0)" fill-opacity="1.0" font-size="10" stroke="none">
FLOAT
</text>
<text x="16" y="134" fill="rgb(255,0,0)" fill-opacity="1.0" font-size="10" stroke="none">
*
</text>
<text x="2" y="134" fill="rgb(0,0,0)" fill-opacity="1.0" font-size="10" stroke="none">
F
</text>
<text x="27" y="134" fill="rgb(0,0,0)" fill-opacity="1.0" font-size="10" stroke="none">
projects_id
</text>
<text x="171" y="134" fill="rgb(0,128,0)" fill-opacity="1.0" font-size="10" stroke="none">
INTEGER
</text>
<text x="16" y="147" fill="rgb(255,0,0)" fill-opacity="1.0" font-size="10" stroke="none">
*
</text>
<text x="2" y="147" fill="rgb(0,0,0)" fill-opacity="1.0" font-size="10" stroke="none">
F
</text>
<text x="27" y="147" fill="rgb(0,0,0)" fill-opacity="1.0" font-size="10" stroke="none">
geonames_id
</text>
<text x="171" y="147" fill="rgb(0,128,0)" fill-opacity="1.0" font-size="10" stroke="none">
INTEGER
</text>
<line x1="0" y1="153" x2="230" y2="153" fill="none" stroke="rgb(0,0,255)"/>
<use xlink:href="#pk_sym" x="4" y="160" width="8" height="8" fill-opacity="1.0"/>
<text x="16" y="166" fill="rgb(0,0,0)" fill-opacity="1.0" font-size="10" stroke="none">
level_PK (id)
</text>
<line x1="0" y1="172" x2="230" y2="172" fill="none" stroke="rgb(0,0,255)"/>
<use xlink:href="#fk_sym" x="4" y="179" width="8" height="8" fill-opacity="1.0"/><a xlink:href="#5ACE6DFB-B452971A960F" >
<text x="16" y="185" fill="rgb(0,0,0)" fill-opacity="1.0" font-size="10" stroke="none">
level_projects_FK (projects_id)
</text></a>
<use xlink:href="#fk_sym" x="4" y="192" width="8" height="8" fill-opacity="1.0"/><a xlink:href="#5058305F-3D63CA219723" >
<text x="16" y="198" fill="rgb(0,0,0)" fill-opacity="1.0" font-size="10" stroke="none">
level_geonames_FK (geonames_id)
</text></a>
<line x1="0" y1="204" x2="230" y2="204" fill="none" stroke="rgb(0,0,255)"/>
<text x="2" y="217" fill="rgb(0,0,0)" fill-opacity="1.0" font-size="10" stroke="none">
U
</text>
<text x="16" y="217" fill="rgb(0,0,0)" fill-opacity="1.0" font-size="10" stroke="none">
level__IDX (projects_id)
</text>
<text x="2" y="230" fill="rgb(0,0,0)" fill-opacity="1.0" font-size="10" stroke="none">
U
</text>
<text x="16" y="230" fill="rgb(0,0,0)" fill-opacity="1.0" font-size="10" stroke="none">
level__IDXv1 (geonames_id)
</text>
</g>
<g  fill="rgb(255,255,180)" stroke="rgb(0,0,255)" fill-opacity="1.0" stroke-opacity="1.0" clip-path="url(#clipPath5_0_)" transform="translate(352,0)" >
<rect x="0" y="0" width="232" height="100" />
<text id="721FF7AF-4F4103908569" x="91" y="13" fill="rgb(0,0,255)" font-weight="bold"  fill-opacity="1.0" font-size="10" stroke="none">
locations
</text>
<line x1="0" y1="17" x2="231" y2="17" fill="none" stroke="rgb(0,0,255)"/>
<text x="16" y="30" fill="rgb(255,0,0)" fill-opacity="1.0" font-size="10" stroke="none">
*
</text>
<text x="2" y="30" fill="rgb(0,0,255)" fill-opacity="1.0" font-size="10" stroke="none">
P
</text>
<text x="27" y="30" fill="rgb(0,0,0)" fill-opacity="1.0" font-size="10" stroke="none">
id
</text>
<text x="139" y="30" fill="rgb(0,128,0)" fill-opacity="1.0" font-size="10" stroke="none">
INTEGER
</text>
<text x="16" y="43" fill="rgb(255,0,0)" fill-opacity="1.0" font-size="10" stroke="none">

</text>
<text x="27" y="43" fill="rgb(0,0,0)" fill-opacity="1.0" font-size="10" stroke="none">
location_type_code
</text>
<text x="139" y="43" fill="rgb(0,128,0)" fill-opacity="1.0" font-size="10" stroke="none">
VARCHAR2
</text>
<text x="16" y="56" fill="rgb(255,0,0)" fill-opacity="1.0" font-size="10" stroke="none">

</text>
<text x="27" y="56" fill="rgb(0,0,0)" fill-opacity="1.0" font-size="10" stroke="none">
location_type_name
</text>
<text x="139" y="56" fill="rgb(0,128,0)" fill-opacity="1.0" font-size="10" stroke="none">
VARCHAR2
</text>
<line x1="0" y1="62" x2="231" y2="62" fill="none" stroke="rgb(0,0,255)"/>
<use xlink:href="#pk_sym" x="4" y="69" width="8" height="8" fill-opacity="1.0"/>
<text x="16" y="75" fill="rgb(0,0,0)" fill-opacity="1.0" font-size="10" stroke="none">
locations_PK (id)
</text>
</g>
<g  fill="rgb(255,255,180)" stroke="rgb(0,0,255)" fill-opacity="1.0" stroke-opacity="1.0" clip-path="url(#clipPath6_0_)" transform="translate(619,37)" >
<rect x="0" y="0" width="234" height="359" />
<text id="5ACE6DFB-B452971A960F" x="94" y="13" fill="rgb(0,0,255)" font-weight="bold"  fill-opacity="1.0" font-size="10" stroke="none">
projects
</text>
<line x1="0" y1="17" x2="233" y2="17" fill="none" stroke="rgb(0,0,255)"/>
<text x="16" y="30" fill="rgb(255,0,0)" fill-opacity="1.0" font-size="10" stroke="none">
*
</text>
<text x="2" y="30" fill="rgb(0,0,255)" fill-opacity="1.0" font-size="10" stroke="none">
P
</text>
<text x="27" y="30" fill="rgb(0,0,0)" fill-opacity="1.0" font-size="10" stroke="none">
id
</text>
<text x="161" y="30" fill="rgb(0,128,0)" fill-opacity="1.0" font-size="10" stroke="none">
INTEGER
</text>
<text x="16" y="43" fill="rgb(255,0,0)" fill-opacity="1.0" font-size="10" stroke="none">

</text>
<text x="27" y="43" fill="rgb(0,0,0)" fill-opacity="1.0" font-size="10" stroke="none">
project_id
</text>
<text x="161" y="43" fill="rgb(0,128,0)" fill-opacity="1.0" font-size="10" stroke="none">
VARCHAR2
</text>
<text x="16" y="56" fill="rgb(255,0,0)" fill-opacity="1.0" font-size="10" stroke="none">

</text>
<text x="27" y="56" fill="rgb(0,0,0)" fill-opacity="1.0" font-size="10" stroke="none">
is_geocoded
</text>
<text x="161" y="56" fill="rgb(0,128,0)" fill-opacity="1.0" font-size="10" stroke="none">
INTEGER
</text>
<text x="16" y="69" fill="rgb(255,0,0)" fill-opacity="1.0" font-size="10" stroke="none">

</text>
<text x="27" y="69" fill="rgb(0,0,0)" fill-opacity="1.0" font-size="10" stroke="none">
project_title
</text>
<text x="161" y="69" fill="rgb(0,128,0)" fill-opacity="1.0" font-size="10" stroke="none">
VARCHAR2
</text>
<text x="16" y="82" fill="rgb(255,0,0)" fill-opacity="1.0" font-size="10" stroke="none">

</text>
<text x="27" y="82" fill="rgb(0,0,0)" fill-opacity="1.0" font-size="10" stroke="none">
start_actual_isodate
</text>
<text x="161" y="82" fill="rgb(0,128,0)" fill-opacity="1.0" font-size="10" stroke="none">
DATE
</text>
<text x="16" y="95" fill="rgb(255,0,0)" fill-opacity="1.0" font-size="10" stroke="none">

</text>
<text x="27" y="95" fill="rgb(0,0,0)" fill-opacity="1.0" font-size="10" stroke="none">
end_actual_isodate
</text>
<text x="161" y="95" fill="rgb(0,128,0)" fill-opacity="1.0" font-size="10" stroke="none">
DATE
</text>
<text x="16" y="108" fill="rgb(255,0,0)" fill-opacity="1.0" font-size="10" stroke="none">

</text>
<text x="27" y="108" fill="rgb(0,0,0)" fill-opacity="1.0" font-size="10" stroke="none">
donors
</text>
<text x="161" y="108" fill="rgb(0,128,0)" fill-opacity="1.0" font-size="10" stroke="none">
VARCHAR2
</text>
<text x="16" y="121" fill="rgb(255,0,0)" fill-opacity="1.0" font-size="10" stroke="none">

</text>
<text x="27" y="121" fill="rgb(0,0,0)" fill-opacity="1.0" font-size="10" stroke="none">
donors_iso3
</text>
<text x="161" y="121" fill="rgb(0,128,0)" fill-opacity="1.0" font-size="10" stroke="none">
VARCHAR2
</text>
<text x="16" y="134" fill="rgb(255,0,0)" fill-opacity="1.0" font-size="10" stroke="none">

</text>
<text x="27" y="134" fill="rgb(0,0,0)" fill-opacity="1.0" font-size="10" stroke="none">
recipients
</text>
<text x="161" y="134" fill="rgb(0,128,0)" fill-opacity="1.0" font-size="10" stroke="none">
VARCHAR2
</text>
<text x="16" y="147" fill="rgb(255,0,0)" fill-opacity="1.0" font-size="10" stroke="none">

</text>
<text x="27" y="147" fill="rgb(0,0,0)" fill-opacity="1.0" font-size="10" stroke="none">
recipients_iso3
</text>
<text x="161" y="147" fill="rgb(0,128,0)" fill-opacity="1.0" font-size="10" stroke="none">
VARCHAR2
</text>
<text x="16" y="160" fill="rgb(255,0,0)" fill-opacity="1.0" font-size="10" stroke="none">

</text>
<text x="27" y="160" fill="rgb(0,0,0)" fill-opacity="1.0" font-size="10" stroke="none">
ad_sector_codes
</text>
<text x="161" y="160" fill="rgb(0,128,0)" fill-opacity="1.0" font-size="10" stroke="none">
VARCHAR2
</text>
<text x="16" y="173" fill="rgb(255,0,0)" fill-opacity="1.0" font-size="10" stroke="none">

</text>
<text x="27" y="173" fill="rgb(0,0,0)" fill-opacity="1.0" font-size="10" stroke="none">
ad_sector_names
</text>
<text x="161" y="173" fill="rgb(0,128,0)" fill-opacity="1.0" font-size="10" stroke="none">
VARCHAR2
</text>
<text x="16" y="186" fill="rgb(255,0,0)" fill-opacity="1.0" font-size="10" stroke="none">

</text>
<text x="27" y="186" fill="rgb(0,0,0)" fill-opacity="1.0" font-size="10" stroke="none">
status
</text>
<text x="161" y="186" fill="rgb(0,128,0)" fill-opacity="1.0" font-size="10" stroke="none">
INTEGER
</text>
<text x="16" y="199" fill="rgb(255,0,0)" fill-opacity="1.0" font-size="10" stroke="none">

</text>
<text x="27" y="199" fill="rgb(0,0,0)" fill-opacity="1.0" font-size="10" stroke="none">
transactions_start_year
</text>
<text x="161" y="199" fill="rgb(0,128,0)" fill-opacity="1.0" font-size="10" stroke="none">
INTEGER
</text>
<text x="16" y="212" fill="rgb(255,0,0)" fill-opacity="1.0" font-size="10" stroke="none">

</text>
<text x="27" y="212" fill="rgb(0,0,0)" fill-opacity="1.0" font-size="10" stroke="none">
transactions_end_year
</text>
<text x="161" y="212" fill="rgb(0,128,0)" fill-opacity="1.0" font-size="10" stroke="none">
INTEGER
</text>
<text x="16" y="225" fill="rgb(255,0,0)" fill-opacity="1.0" font-size="10" stroke="none">

</text>
<text x="27" y="225" fill="rgb(0,0,0)" fill-opacity="1.0" font-size="10" stroke="none">
total_commitments
</text>
<text x="161" y="225" fill="rgb(0,128,0)" fill-opacity="1.0" font-size="10" stroke="none">
FLOAT
</text>
<text x="16" y="238" fill="rgb(255,0,0)" fill-opacity="1.0" font-size="10" stroke="none">

</text>
<text x="27" y="238" fill="rgb(0,0,0)" fill-opacity="1.0" font-size="10" stroke="none">
total_disbursements
</text>
<text x="161" y="238" fill="rgb(0,128,0)" fill-opacity="1.0" font-size="10" stroke="none">
FLOAT
</text>
<text x="16" y="251" fill="rgb(255,0,0)" fill-opacity="1.0" font-size="10" stroke="none">
*
</text>
<text x="2" y="251" fill="rgb(0,0,0)" fill-opacity="1.0" font-size="10" stroke="none">
F
</text>
<text x="27" y="251" fill="rgb(0,0,0)" fill-opacity="1.0" font-size="10" stroke="none">
status_id
</text>
<text x="161" y="251" fill="rgb(0,128,0)" fill-opacity="1.0" font-size="10" stroke="none">
INTEGER
</text>
<text x="16" y="264" fill="rgb(255,0,0)" fill-opacity="1.0" font-size="10" stroke="none">
*
</text>
<text x="2" y="264" fill="rgb(0,0,0)" fill-opacity="1.0" font-size="10" stroke="none">
F
</text>
<text x="27" y="264" fill="rgb(0,0,0)" fill-opacity="1.0" font-size="10" stroke="none">
country_codes_id
</text>
<text x="161" y="264" fill="rgb(0,128,0)" fill-opacity="1.0" font-size="10" stroke="none">
INTEGER
</text>
<line x1="0" y1="270" x2="233" y2="270" fill="none" stroke="rgb(0,0,255)"/>
<use xlink:href="#pk_sym" x="4" y="277" width="8" height="8" fill-opacity="1.0"/>
<text x="16" y="283" fill="rgb(0,0,0)" fill-opacity="1.0" font-size="10" stroke="none">
projects_PK (id)
</text>
<line x1="0" y1="289" x2="233" y2="289" fill="none" stroke="rgb(0,0,255)"/>
<use xlink:href="#fk_sym" x="4" y="296" width="8" height="8" fill-opacity="1.0"/><a xlink:href="#E57CEE8E-8A989E2EDBDD" >
<text x="16" y="302" fill="rgb(0,0,0)" fill-opacity="1.0" font-size="10" stroke="none">
projects_country_codes_FK (country_codes_id)
</text></a>
<use xlink:href="#fk_sym" x="4" y="309" width="8" height="8" fill-opacity="1.0"/><a xlink:href="#3C171B45-B1A81E677E3A" >
<text x="16" y="315" fill="rgb(0,0,0)" fill-opacity="1.0" font-size="10" stroke="none">
projects_status_FK (status_id)
</text></a>
<line x1="0" y1="321" x2="233" y2="321" fill="none" stroke="rgb(0,0,255)"/>
<text x="2" y="334" fill="rgb(0,0,0)" fill-opacity="1.0" font-size="10" stroke="none">
U
</text>
<text x="16" y="334" fill="rgb(0,0,0)" fill-opacity="1.0" font-size="10" stroke="none">
projects__IDX (country_codes_id)
</text>
<text x="2" y="347" fill="rgb(0,0,0)" fill-opacity="1.0" font-size="10" stroke="none">
U
</text>
<text x="16" y="347" fill="rgb(0,0,0)" fill-opacity="1.0" font-size="10" stroke="none">
projects__IDXv1 (status_id)
</text>
</g>
<g  fill="rgb(255,255,180)" stroke="rgb(0,0,255)" fill-opacity="1.0" stroke-opacity="1.0" clip-path="url(#clipPath7_0_)" transform="translate(364,173)" >
<rect x="0" y="0" width="169" height="91" />
<text id="3C171B45-B1A81E677E3A" x="67" y="13" fill="rgb(0,0,255)" font-weight="bold"  fill-opacity="1.0" font-size="10" stroke="none">
status
</text>
<line x1="0" y1="17" x2="168" y2="17" fill="none" stroke="rgb(0,0,255)"/>
<text x="16" y="30" fill="rgb(255,0,0)" fill-opacity="1.0" font-size="10" stroke="none">
*
</text>
<text x="2" y="30" fill="rgb(0,0,255)" fill-opacity="1.0" font-size="10" stroke="none">
P
</text>
<text x="27" y="30" fill="rgb(0,0,0)" fill-opacity="1.0" font-size="10" stroke="none">
id
</text>
<text x="75" y="30" fill="rgb(0,128,0)" fill-opacity="1.0" font-size="10" stroke="none">
INTEGER
</text>
<text x="16" y="43" fill="rgb(255,0,0)" fill-opacity="1.0" font-size="10" stroke="none">

</text>
<text x="27" y="43" fill="rgb(0,0,0)" fill-opacity="1.0" font-size="10" stroke="none">
name
</text>
<text x="75" y="43" fill="rgb(0,128,0)" fill-opacity="1.0" font-size="10" stroke="none">
VARCHAR2
</text>
<line x1="0" y1="49" x2="168" y2="49" fill="none" stroke="rgb(0,0,255)"/>
<use xlink:href="#pk_sym" x="4" y="56" width="8" height="8" fill-opacity="1.0"/>
<text x="16" y="62" fill="rgb(0,0,0)" fill-opacity="1.0" font-size="10" stroke="none">
status_PK (id)
</text>
</g>
<g  fill="rgb(255,255,180)" stroke="rgb(0,0,255)" fill-opacity="1.0" stroke-opacity="1.0" clip-path="url(#clipPath8_0_)" transform="translate(432,502)" >
<rect x="0" y="0" width="245" height="244" />
<text id="981A5935-999D9E02BEA4" x="90" y="13" fill="rgb(0,0,255)" font-weight="bold"  fill-opacity="1.0" font-size="10" stroke="none">
transaction
</text>
<line x1="0" y1="17" x2="244" y2="17" fill="none" stroke="rgb(0,0,255)"/>
<text x="16" y="30" fill="rgb(255,0,0)" fill-opacity="1.0" font-size="10" stroke="none">
*
</text>
<text x="2" y="30" fill="rgb(0,0,255)" fill-opacity="1.0" font-size="10" stroke="none">
P
</text>
<text x="27" y="30" fill="rgb(0,0,0)" fill-opacity="1.0" font-size="10" stroke="none">
id
</text>
<text x="160" y="30" fill="rgb(0,128,0)" fill-opacity="1.0" font-size="10" stroke="none">
INTEGER
</text>
<text x="16" y="43" fill="rgb(255,0,0)" fill-opacity="1.0" font-size="10" stroke="none">

</text>
<text x="27" y="43" fill="rgb(0,0,0)" fill-opacity="1.0" font-size="10" stroke="none">
transaction_id
</text>
<text x="160" y="43" fill="rgb(0,128,0)" fill-opacity="1.0" font-size="10" stroke="none">
INTEGER
</text>
<text x="16" y="56" fill="rgb(255,0,0)" fill-opacity="1.0" font-size="10" stroke="none">

</text>
<text x="27" y="56" fill="rgb(0,0,0)" fill-opacity="1.0" font-size="10" stroke="none">
project_id
</text>
<text x="160" y="56" fill="rgb(0,128,0)" fill-opacity="1.0" font-size="10" stroke="none">
INTEGER
</text>
<text x="16" y="69" fill="rgb(255,0,0)" fill-opacity="1.0" font-size="10" stroke="none">

</text>
<text x="27" y="69" fill="rgb(0,0,0)" fill-opacity="1.0" font-size="10" stroke="none">
transaction_isodate
</text>
<text x="160" y="69" fill="rgb(0,128,0)" fill-opacity="1.0" font-size="10" stroke="none">
DATE
</text>
<text x="16" y="82" fill="rgb(255,0,0)" fill-opacity="1.0" font-size="10" stroke="none">

</text>
<text x="27" y="82" fill="rgb(0,0,0)" fill-opacity="1.0" font-size="10" stroke="none">
transaction_year
</text>
<text x="160" y="82" fill="rgb(0,128,0)" fill-opacity="1.0" font-size="10" stroke="none">
INTEGER
</text>
<text x="16" y="95" fill="rgb(255,0,0)" fill-opacity="1.0" font-size="10" stroke="none">

</text>
<text x="27" y="95" fill="rgb(0,0,0)" fill-opacity="1.0" font-size="10" stroke="none">
transaction_value_code
</text>
<text x="160" y="95" fill="rgb(0,128,0)" fill-opacity="1.0" font-size="10" stroke="none">
VARCHAR2
</text>
<text x="16" y="108" fill="rgb(255,0,0)" fill-opacity="1.0" font-size="10" stroke="none">

</text>
<text x="27" y="108" fill="rgb(0,0,0)" fill-opacity="1.0" font-size="10" stroke="none">
transaction_currency
</text>
<text x="160" y="108" fill="rgb(0,128,0)" fill-opacity="1.0" font-size="10" stroke="none">
VARCHAR2
</text>
<text x="16" y="121" fill="rgb(255,0,0)" fill-opacity="1.0" font-size="10" stroke="none">

</text>
<text x="27" y="121" fill="rgb(0,0,0)" fill-opacity="1.0" font-size="10" stroke="none">
transaction_value
</text>
<text x="160" y="121" fill="rgb(0,128,0)" fill-opacity="1.0" font-size="10" stroke="none">
FLOAT
</text>
<text x="16" y="134" fill="rgb(255,0,0)" fill-opacity="1.0" font-size="10" stroke="none">
*
</text>
<text x="2" y="134" fill="rgb(0,0,0)" fill-opacity="1.0" font-size="10" stroke="none">
F
</text>
<text x="27" y="134" fill="rgb(0,0,0)" fill-opacity="1.0" font-size="10" stroke="none">
projects_id
</text>
<text x="160" y="134" fill="rgb(0,128,0)" fill-opacity="1.0" font-size="10" stroke="none">
INTEGER
</text>
<text x="16" y="147" fill="rgb(255,0,0)" fill-opacity="1.0" font-size="10" stroke="none">
*
</text>
<text x="2" y="147" fill="rgb(0,0,0)" fill-opacity="1.0" font-size="10" stroke="none">
F
</text>
<text x="27" y="147" fill="rgb(0,0,0)" fill-opacity="1.0" font-size="10" stroke="none">
currency_id
</text>
<text x="160" y="147" fill="rgb(0,128,0)" fill-opacity="1.0" font-size="10" stroke="none">
INTEGER
</text>
<line x1="0" y1="153" x2="244" y2="153" fill="none" stroke="rgb(0,0,255)"/>
<use xlink:href="#pk_sym" x="4" y="160" width="8" height="8" fill-opacity="1.0"/>
<text x="16" y="166" fill="rgb(0,0,0)" fill-opacity="1.0" font-size="10" stroke="none">
transaction_PK (id)
</text>
<line x1="0" y1="172" x2="244" y2="172" fill="none" stroke="rgb(0,0,255)"/>
<use xlink:href="#fk_sym" x="4" y="179" width="8" height="8" fill-opacity="1.0"/><a xlink:href="#BA5FC000-311279C187CC" >
<text x="16" y="185" fill="rgb(0,0,0)" fill-opacity="1.0" font-size="10" stroke="none">
transaction_currency_FK (currency_id)
</text></a>
<use xlink:href="#fk_sym" x="4" y="192" width="8" height="8" fill-opacity="1.0"/><a xlink:href="#5ACE6DFB-B452971A960F" >
<text x="16" y="198" fill="rgb(0,0,0)" fill-opacity="1.0" font-size="10" stroke="none">
transaction_projects_FK (projects_id)
</text></a>
<line x1="0" y1="204" x2="244" y2="204" fill="none" stroke="rgb(0,0,255)"/>
<text x="2" y="217" fill="rgb(0,0,0)" fill-opacity="1.0" font-size="10" stroke="none">
U
</text>
<text x="16" y="217" fill="rgb(0,0,0)" fill-opacity="1.0" font-size="10" stroke="none">
transaction__IDX (currency_id)
</text>
<text x="2" y="230" fill="rgb(0,0,0)" fill-opacity="1.0" font-size="10" stroke="none">
U
</text>
<text x="16" y="230" fill="rgb(0,0,0)" fill-opacity="1.0" font-size="10" stroke="none">
transaction__IDXv1 (projects_id)
</text>
</g>

</svg>